<svg xmlns="http://www.w3.org/2000/svg" width="40" height="40" viewBox="0 0 100 100"><g stroke="#b0b0b0" stroke-width="7"><path d="M76.03 79.854a3.809 3.809 0 0 1-2.704-1.12L21.184 26.592a3.824 3.824 0 1 1 5.409-5.409l52.143 52.142a3.824 3.824 0 0 1-2.706 6.529z"/><path d="M23.888 79.854a3.824 3.824 0 0 1-2.704-6.529l52.142-52.142a3.826 3.826 0 0 1 5.409 5.409L26.593 78.734a3.813 3.813 0 0 1-2.705 1.12z"/></g><path d="M76.03 79.854a3.809 3.809 0 0 1-2.704-1.12L21.184 26.592a3.824 3.824 0 1 1 5.409-5.409l52.143 52.142a3.824 3.824 0 0 1-2.706 6.529z"/><path d="M23.888 79.854a3.824 3.824 0 0 1-2.704-6.529l52.142-52.142a3.826 3.826 0 0 1 5.409 5.409L26.593 78.734a3.813 3.813 0 0 1-2.705 1.12z"/></svg>